# xmcd
#
# Track frame offsets: 
#        150
#        19323
#        47230
#        65960
#        86894
#        106672
#        123548
#        140642
#        153970
#        173436
#        194680
#        206926
#        231381
#        253958
#        272037
#        291634
#
# Disc length: 4100 seconds
#
# Revision: 1
# Processed by: cddbd v1.5.2PL0 Copyright (c) Steve Scherf et al.
# Submitted via: ExactAudioCopy v0.99pb5
#
DISCID=07100210
DTITLE=S³awek Wierzcholski and The Blues Nighshift - Satyr Blues Night 2
DTITLE=001 LIVE!
DYEAR=2001
DGENRE=Polish Blues
TTITLE0=Papieros na sniadanie
TTITLE1=Szosta zero dwie
TTITLE2=Rok 2000
TTITLE3=Ani slowa o klopotach
TTITLE4=Ciezki dzien
TTITLE5=Przejsciowy stan
TTITLE6=To jesien, to jesien
TTITLE7=Sto kilometrów
TTITLE8=Blues mieszka w Polsce
TTITLE9=John Lee Hooker
TTITLE10=Przegranych nikt nie lubi
TTITLE11=Nieznajomy przyjaciel
TTITLE12=Blues train
TTITLE13=Chory na bluesa
TTITLE14=Blues for Charlie
TTITLE15=Gwizdany
EXTD=
EXTT0=
EXTT1=
EXTT2=
EXTT3=
EXTT4=
EXTT5=
EXTT6=
EXTT7=
EXTT8=
EXTT9=
EXTT10=
EXTT11=
EXTT12=
EXTT13=
EXTT14=
EXTT15=
PLAYORDER=
